<svg width="800" height="400" xmlns="http://www.w3.org/2000/svg">
      <defs>
        <linearGradient id="areaGrad" x1="0%" y1="0%" x2="0%" y2="100%">
          <stop offset="0%" style="stop-color:#e74c3c;stop-opacity:0.3"/>
          <stop offset="100%" style="stop-color:#e74c3c;stop-opacity:0.05"/>
        </linearGradient>
      </defs>
      <rect width="100%" height="100%" fill="#ffffff"/>
      
      <!-- 标题 -->
      <text x="400" y="30" fill="#333" font-size="16" font-weight="bold" text-anchor="middle" font-family="sans-serif">Code History</text>
      
      <!-- 图例 -->
      <rect x="80" y="45" width="12" height="12" fill="#e74c3c" rx="2"/>
      <text x="98" y="55" fill="#333" font-size="11" font-family="sans-serif">WyRainBow/Resume-Agent</text>
      
      <!-- Y轴标签 -->
      <text x="20" y="200" fill="#666" font-size="12" text-anchor="middle" font-family="sans-serif" transform="rotate(-90, 20, 200)">Lines of Code</text>
      
      <!-- 网格线和Y轴刻度 -->
      <text x="70" y="344.0" fill="#666" font-size="12" text-anchor="end" font-family="sans-serif">0</text><line x1="80" y1="340.0" x2="760" y2="340.0" stroke="#eee" stroke-width="1"/><text x="70" y="288.0" fill="#666" font-size="12" text-anchor="end" font-family="sans-serif">33.8k</text><line x1="80" y1="284.0" x2="760" y2="284.0" stroke="#eee" stroke-width="1"/><text x="70" y="232.0" fill="#666" font-size="12" text-anchor="end" font-family="sans-serif">67.6k</text><line x1="80" y1="228.0" x2="760" y2="228.0" stroke="#eee" stroke-width="1"/><text x="70" y="176.0" fill="#666" font-size="12" text-anchor="end" font-family="sans-serif">101.4k</text><line x1="80" y1="172.0" x2="760" y2="172.0" stroke="#eee" stroke-width="1"/><text x="70" y="120.0" fill="#666" font-size="12" text-anchor="end" font-family="sans-serif">135.2k</text><line x1="80" y1="116.0" x2="760" y2="116.0" stroke="#eee" stroke-width="1"/><text x="70" y="64.0" fill="#666" font-size="12" text-anchor="end" font-family="sans-serif">169.0k</text><line x1="80" y1="60.0" x2="760" y2="60.0" stroke="#eee" stroke-width="1"/>
      
      <!-- 坐标轴 -->
      <line x1="80" y1="60" x2="80" y2="340" stroke="#ccc" stroke-width="1"/>
      <line x1="80" y1="340" x2="760" y2="340" stroke="#ccc" stroke-width="1"/>
      
      <!-- 填充区域 -->
      <polygon points="80,340 80.0,327.9195679052515 84.85714285714286,327.52367824795755 89.71428571428571,321.9514070883889 94.57142857142857,320.12435147334605 99.42857142857143,320.12435147334605 104.28571428571428,320.42582393203855 109.14285714285714,316.0263137656253 114.0,312.4450859870916 118.85714285714286,312.4450859870916 123.71428571428571,312.4450859870916 128.57142857142856,310.6296254666138 133.42857142857144,311.10833722794416 138.28571428571428,308.8191342723782 143.14285714285714,307.1593793074889 148.0,307.1593793074889 152.85714285714283,304.2871087395067 157.71428571428572,304.02042156450955 162.57142857142856,304.02042156450955 167.42857142857142,304.02042156450955 172.28571428571428,304.02042156450955 177.14285714285714,292.16360915065934 182.0,292.8212166567083 186.85714285714286,289.2515839727397 191.71428571428572,289.2515839727397 196.57142857142856,286.10765690351815 201.42857142857144,222.77028106272593 206.28571428571428,222.7868454835332 211.14285714285714,222.63610925418698 216.0,222.61126262297603 220.85714285714286,222.61126262297603 225.7142857142857,222.61126262297603 230.57142857142856,222.61126262297603 235.42857142857142,222.61126262297603 240.28571428571428,220.15310257517586 245.14285714285714,219.2718753882286 250.0,219.2718753882286 254.85714285714283,219.2718753882286 259.7142857142857,219.2718753882286 264.57142857142856,219.2718753882286 269.42857142857144,219.2718753882286 274.2857142857143,219.2718753882286 279.1428571428571,219.2718753882286 284.0,219.2718753882286 288.8571428571429,217.126782893686 293.7142857142857,207.58733295077408 298.57142857142856,205.7635902198927 303.42857142857144,205.91929577548112 308.2857142857143,205.79837550358798 313.1428571428571,204.93536917952875 318.0,204.16512361199028 322.8571428571429,202.5616876778457 327.71428571428567,184.4832788087815 332.57142857142856,107.23675881611717 337.42857142857144,107.23675881611717 342.2857142857143,98.55700231310306 347.1428571428571,96.02761525583156 352.0,111.31491921886925 356.85714285714283,111.31491921886925 361.7142857142857,111.31491921886925 366.57142857142856,111.31491921886925 371.4285714285714,111.30994989262706 376.2857142857143,90.24331950992979 381.1428571428571,90.24331950992979 386.0,88.80552778385797 390.85714285714283,88.80552778385797 395.7142857142857,88.21086507687664 400.57142857142856,88.21086507687664 405.42857142857144,88.21086507687664 410.2857142857143,88.21086507687664 415.14285714285717,88.21086507687664 420.0,88.21086507687664 424.85714285714283,88.21086507687664 429.71428571428567,88.21086507687664 434.5714285714286,88.21086507687664 439.42857142857144,88.21086507687664 444.2857142857143,87.4836870034371 449.1428571428571,87.4836870034371 454.00000000000006,87.47540479303348 458.8571428571429,87.47540479303348 463.7142857142857,87.47540479303348 468.57142857142856,87.47540479303348 473.42857142857144,87.47540479303348 478.2857142857143,87.47540479303348 483.14285714285717,87.47540479303348 488.0,87.47540479303348 492.85714285714283,87.47540479303348 497.7142857142857,87.47540479303348 502.57142857142856,86.48319598667749 507.42857142857144,86.48319598667749 512.2857142857142,86.48485242875819 517.1428571428571,86.48485242875819 522.0,86.48485242875819 526.8571428571429,86.48485242875819 531.7142857142858,86.48485242875819 536.5714285714286,86.48485242875819 541.4285714285714,86.46828800795092 546.2857142857142,85.70963753497753 551.1428571428571,85.70963753497753 556.0,85.6897602300088 560.8571428571429,85.45454545454547 565.7142857142858,85.45454545454547 570.5714285714286,85.45454545454547 575.4285714285713,85.45454545454547 580.2857142857143,85.45454545454547 585.1428571428571,85.45454545454547 590.0,85.45454545454547 594.8571428571429,85.45454545454547 599.7142857142857,85.45454545454547 604.5714285714286,85.45454545454547 609.4285714285714,85.45454545454547 614.2857142857142,85.45454545454547 619.1428571428571,85.45454545454547 624.0,85.45454545454547 628.8571428571429,85.45454545454547 633.7142857142857,85.45454545454547 638.5714285714286,85.45454545454547 643.4285714285714,85.45454545454547 648.2857142857143,85.45454545454547 653.1428571428571,85.45454545454547 658.0,85.45454545454547 662.8571428571428,85.45454545454547 667.7142857142858,85.45454545454547 672.5714285714286,85.45454545454547 677.4285714285714,86.04920816152676 682.2857142857142,86.04920816152676 687.1428571428572,86.04920816152676 692.0,86.04920816152676 696.8571428571429,86.04920816152676 701.7142857142857,86.04920816152676 706.5714285714286,86.04920816152676 711.4285714285714,86.04920816152676 716.2857142857143,86.04920816152676 721.1428571428571,86.04920816152676 726.0,86.04920816152676 730.8571428571429,86.04920816152676 735.7142857142858,86.04920816152676 740.5714285714286,86.04920816152676 745.4285714285714,86.04920816152676 750.2857142857143,86.04920816152676 755.1428571428571,86.04920816152676 760.0,86.04920816152676 760.0,340" fill="url(#areaGrad)"/>
      
      <!-- 折线 -->
      <polyline points="80.0,327.9195679052515 84.85714285714286,327.52367824795755 89.71428571428571,321.9514070883889 94.57142857142857,320.12435147334605 99.42857142857143,320.12435147334605 104.28571428571428,320.42582393203855 109.14285714285714,316.0263137656253 114.0,312.4450859870916 118.85714285714286,312.4450859870916 123.71428571428571,312.4450859870916 128.57142857142856,310.6296254666138 133.42857142857144,311.10833722794416 138.28571428571428,308.8191342723782 143.14285714285714,307.1593793074889 148.0,307.1593793074889 152.85714285714283,304.2871087395067 157.71428571428572,304.02042156450955 162.57142857142856,304.02042156450955 167.42857142857142,304.02042156450955 172.28571428571428,304.02042156450955 177.14285714285714,292.16360915065934 182.0,292.8212166567083 186.85714285714286,289.2515839727397 191.71428571428572,289.2515839727397 196.57142857142856,286.10765690351815 201.42857142857144,222.77028106272593 206.28571428571428,222.7868454835332 211.14285714285714,222.63610925418698 216.0,222.61126262297603 220.85714285714286,222.61126262297603 225.7142857142857,222.61126262297603 230.57142857142856,222.61126262297603 235.42857142857142,222.61126262297603 240.28571428571428,220.15310257517586 245.14285714285714,219.2718753882286 250.0,219.2718753882286 254.85714285714283,219.2718753882286 259.7142857142857,219.2718753882286 264.57142857142856,219.2718753882286 269.42857142857144,219.2718753882286 274.2857142857143,219.2718753882286 279.1428571428571,219.2718753882286 284.0,219.2718753882286 288.8571428571429,217.126782893686 293.7142857142857,207.58733295077408 298.57142857142856,205.7635902198927 303.42857142857144,205.91929577548112 308.2857142857143,205.79837550358798 313.1428571428571,204.93536917952875 318.0,204.16512361199028 322.8571428571429,202.5616876778457 327.71428571428567,184.4832788087815 332.57142857142856,107.23675881611717 337.42857142857144,107.23675881611717 342.2857142857143,98.55700231310306 347.1428571428571,96.02761525583156 352.0,111.31491921886925 356.85714285714283,111.31491921886925 361.7142857142857,111.31491921886925 366.57142857142856,111.31491921886925 371.4285714285714,111.30994989262706 376.2857142857143,90.24331950992979 381.1428571428571,90.24331950992979 386.0,88.80552778385797 390.85714285714283,88.80552778385797 395.7142857142857,88.21086507687664 400.57142857142856,88.21086507687664 405.42857142857144,88.21086507687664 410.2857142857143,88.21086507687664 415.14285714285717,88.21086507687664 420.0,88.21086507687664 424.85714285714283,88.21086507687664 429.71428571428567,88.21086507687664 434.5714285714286,88.21086507687664 439.42857142857144,88.21086507687664 444.2857142857143,87.4836870034371 449.1428571428571,87.4836870034371 454.00000000000006,87.47540479303348 458.8571428571429,87.47540479303348 463.7142857142857,87.47540479303348 468.57142857142856,87.47540479303348 473.42857142857144,87.47540479303348 478.2857142857143,87.47540479303348 483.14285714285717,87.47540479303348 488.0,87.47540479303348 492.85714285714283,87.47540479303348 497.7142857142857,87.47540479303348 502.57142857142856,86.48319598667749 507.42857142857144,86.48319598667749 512.2857142857142,86.48485242875819 517.1428571428571,86.48485242875819 522.0,86.48485242875819 526.8571428571429,86.48485242875819 531.7142857142858,86.48485242875819 536.5714285714286,86.48485242875819 541.4285714285714,86.46828800795092 546.2857142857142,85.70963753497753 551.1428571428571,85.70963753497753 556.0,85.6897602300088 560.8571428571429,85.45454545454547 565.7142857142858,85.45454545454547 570.5714285714286,85.45454545454547 575.4285714285713,85.45454545454547 580.2857142857143,85.45454545454547 585.1428571428571,85.45454545454547 590.0,85.45454545454547 594.8571428571429,85.45454545454547 599.7142857142857,85.45454545454547 604.5714285714286,85.45454545454547 609.4285714285714,85.45454545454547 614.2857142857142,85.45454545454547 619.1428571428571,85.45454545454547 624.0,85.45454545454547 628.8571428571429,85.45454545454547 633.7142857142857,85.45454545454547 638.5714285714286,85.45454545454547 643.4285714285714,85.45454545454547 648.2857142857143,85.45454545454547 653.1428571428571,85.45454545454547 658.0,85.45454545454547 662.8571428571428,85.45454545454547 667.7142857142858,85.45454545454547 672.5714285714286,85.45454545454547 677.4285714285714,86.04920816152676 682.2857142857142,86.04920816152676 687.1428571428572,86.04920816152676 692.0,86.04920816152676 696.8571428571429,86.04920816152676 701.7142857142857,86.04920816152676 706.5714285714286,86.04920816152676 711.4285714285714,86.04920816152676 716.2857142857143,86.04920816152676 721.1428571428571,86.04920816152676 726.0,86.04920816152676 730.8571428571429,86.04920816152676 735.7142857142858,86.04920816152676 740.5714285714286,86.04920816152676 745.4285714285714,86.04920816152676 750.2857142857143,86.04920816152676 755.1428571428571,86.04920816152676 760.0,86.04920816152676" fill="none" stroke="#e74c3c" stroke-width="2.5"/>
      
      <!-- X轴标签 -->
      <text x="80.0" y="375" fill="#666" font-size="11" text-anchor="middle" font-family="sans-serif">12-07</text><text x="216.0" y="375" fill="#666" font-size="11" text-anchor="middle" font-family="sans-serif">01-22</text><text x="352.0" y="375" fill="#666" font-size="11" text-anchor="middle" font-family="sans-serif">07-12</text><text x="488.0" y="375" fill="#666" font-size="11" text-anchor="middle" font-family="sans-serif">08-09</text><text x="624.0" y="375" fill="#666" font-size="11" text-anchor="middle" font-family="sans-serif">09-06</text><text x="760.0" y="375" fill="#666" font-size="11" text-anchor="middle" font-family="sans-serif">10-04</text>
      <text x="400" y="395" fill="#666" font-size="12" text-anchor="middle" font-family="sans-serif">Date</text>
      
      <!-- 当前值标注 -->
      <circle cx="760.0" cy="86.04920816152676" r="4" fill="#e74c3c"/>
      <text x="768.0" y="78.04920816152676" fill="#e74c3c" font-size="12" font-weight="bold" font-family="sans-serif">153311</text>
    </svg>