<svg width="800" height="400" xmlns="http://www.w3.org/2000/svg">
      <defs>
        <linearGradient id="areaGrad" x1="0%" y1="0%" x2="0%" y2="100%">
          <stop offset="0%" style="stop-color:#e74c3c;stop-opacity:0.3"/>
          <stop offset="100%" style="stop-color:#e74c3c;stop-opacity:0.05"/>
        </linearGradient>
      </defs>
      <rect width="100%" height="100%" fill="#ffffff"/>
      
      <!-- 标题 -->
      <text x="400" y="30" fill="#333" font-size="16" font-weight="bold" text-anchor="middle" font-family="sans-serif">Code History</text>
      
      <!-- 图例 -->
      <rect x="80" y="45" width="12" height="12" fill="#e74c3c" rx="2"/>
      <text x="98" y="55" fill="#333" font-size="11" font-family="sans-serif">WyRainBow/Resume-Agent</text>
      
      <!-- Y轴标签 -->
      <text x="20" y="200" fill="#666" font-size="12" text-anchor="middle" font-family="sans-serif" transform="rotate(-90, 20, 200)">Lines of Code</text>
      
      <!-- 网格线和Y轴刻度 -->
      <text x="70" y="344.0" fill="#666" font-size="12" text-anchor="end" font-family="sans-serif">0</text><line x1="80" y1="340.0" x2="760" y2="340.0" stroke="#eee" stroke-width="1"/><text x="70" y="288.0" fill="#666" font-size="12" text-anchor="end" font-family="sans-serif">33.8k</text><line x1="80" y1="284.0" x2="760" y2="284.0" stroke="#eee" stroke-width="1"/><text x="70" y="232.0" fill="#666" font-size="12" text-anchor="end" font-family="sans-serif">67.6k</text><line x1="80" y1="228.0" x2="760" y2="228.0" stroke="#eee" stroke-width="1"/><text x="70" y="176.0" fill="#666" font-size="12" text-anchor="end" font-family="sans-serif">101.4k</text><line x1="80" y1="172.0" x2="760" y2="172.0" stroke="#eee" stroke-width="1"/><text x="70" y="120.0" fill="#666" font-size="12" text-anchor="end" font-family="sans-serif">135.2k</text><line x1="80" y1="116.0" x2="760" y2="116.0" stroke="#eee" stroke-width="1"/><text x="70" y="64.0" fill="#666" font-size="12" text-anchor="end" font-family="sans-serif">169.0k</text><line x1="80" y1="60.0" x2="760" y2="60.0" stroke="#eee" stroke-width="1"/>
      
      <!-- 坐标轴 -->
      <line x1="80" y1="60" x2="80" y2="340" stroke="#ccc" stroke-width="1"/>
      <line x1="80" y1="340" x2="760" y2="340" stroke="#ccc" stroke-width="1"/>
      
      <!-- 填充区域 -->
      <polygon points="80,340 80.0,327.9195679052515 85.6198347107438,327.52367824795755 91.2396694214876,321.9514070883889 96.85950413223141,320.12435147334605 102.47933884297521,320.12435147334605 108.09917355371901,320.42582393203855 113.71900826446281,316.0263137656253 119.3388429752066,312.4450859870916 124.95867768595042,312.4450859870916 130.5785123966942,312.4450859870916 136.19834710743802,310.6296254666138 141.8181818181818,311.10833722794416 147.43801652892563,308.8191342723782 153.05785123966942,307.1593793074889 158.6776859504132,307.1593793074889 164.29752066115702,304.2871087395067 169.91735537190084,304.02042156450955 175.53719008264463,304.02042156450955 181.15702479338842,304.02042156450955 186.77685950413223,304.02042156450955 192.39669421487605,292.16360915065934 198.01652892561984,292.8212166567083 203.63636363636363,289.2515839727397 209.25619834710744,289.2515839727397 214.87603305785123,286.10765690351815 220.49586776859505,222.77028106272593 226.11570247933884,222.7868454835332 231.73553719008265,222.63610925418698 237.35537190082644,222.61126262297603 242.97520661157026,222.61126262297603 248.59504132231405,222.61126262297603 254.21487603305783,222.61126262297603 259.8347107438017,222.61126262297603 265.45454545454544,220.15310257517586 271.07438016528926,219.2718753882286 276.694214876033,219.2718753882286 282.31404958677683,219.2718753882286 287.93388429752065,219.2718753882286 293.55371900826447,219.2718753882286 299.1735537190083,219.2718753882286 304.7933884297521,219.2718753882286 310.41322314049586,219.2718753882286 316.0330578512397,219.2718753882286 321.65289256198344,217.126782893686 327.27272727272725,207.58733295077408 332.89256198347107,205.7635902198927 338.5123966942149,205.91929577548112 344.13223140495865,205.79837550358798 349.75206611570246,204.93536917952875 355.3719008264463,204.16512361199028 360.9917355371901,202.5616876778457 366.61157024793386,184.4832788087815 372.2314049586777,107.23675881611717 377.8512396694215,107.23675881611717 383.4710743801653,98.55700231310306 389.09090909090907,96.02761525583156 394.7107438016529,111.31491921886925 400.3305785123967,111.31491921886925 405.9504132231405,111.31491921886925 411.5702479338843,111.31491921886925 417.1900826446281,111.30994989262706 422.8099173553719,90.24331950992979 428.42975206611567,90.24331950992979 434.04958677685954,88.80552778385797 439.6694214876033,88.80552778385797 445.2892561983471,88.21086507687664 450.9090909090909,88.21086507687664 456.52892561983475,88.21086507687664 462.1487603305785,88.21086507687664 467.7685950413223,88.21086507687664 473.3884297520661,88.21086507687664 479.00826446280996,88.21086507687664 484.6280991735537,88.21086507687664 490.24793388429754,88.21086507687664 495.8677685950413,88.21086507687664 501.48760330578517,87.4836870034371 507.10743801652893,87.4836870034371 512.7272727272727,87.47540479303348 518.3471074380166,87.47540479303348 523.9669421487604,87.47540479303348 529.5867768595042,87.47540479303348 535.2066115702479,87.47540479303348 540.8264462809917,87.47540479303348 546.4462809917356,87.47540479303348 552.0661157024794,87.47540479303348 557.685950413223,87.47540479303348 563.3057851239669,87.47540479303348 568.9256198347108,86.48319598667749 574.5454545454545,86.48319598667749 580.1652892561983,86.48485242875819 585.7851239669421,86.48485242875819 591.404958677686,86.48485242875819 597.0247933884298,86.48485242875819 602.6446280991736,86.48485242875819 608.2644628099173,86.48485242875819 613.8842975206612,86.46828800795092 619.5041322314049,85.70963753497753 625.1239669421487,85.70963753497753 630.7438016528926,85.6897602300088 636.3636363636364,85.45454545454547 641.9834710743802,85.45454545454547 647.603305785124,85.45454545454547 653.2231404958677,85.45454545454547 658.8429752066116,85.45454545454547 664.4628099173553,85.45454545454547 670.0826446280992,85.45454545454547 675.702479338843,85.45454545454547 681.3223140495868,85.45454545454547 686.9421487603306,85.45454545454547 692.5619834710744,85.45454545454547 698.1818181818181,85.45454545454547 703.8016528925621,85.45454545454547 709.4214876033058,85.45454545454547 715.0413223140496,85.45454545454547 720.6611570247934,85.45454545454547 726.2809917355372,85.45454545454547 731.900826446281,85.45454545454547 737.5206611570248,85.45454545454547 743.1404958677685,85.45454545454547 748.7603305785125,85.45454545454547 754.3801652892562,85.45454545454547 760.0,85.45454545454547 760.0,340" fill="url(#areaGrad)"/>
      
      <!-- 折线 -->
      <polyline points="80.0,327.9195679052515 85.6198347107438,327.52367824795755 91.2396694214876,321.9514070883889 96.85950413223141,320.12435147334605 102.47933884297521,320.12435147334605 108.09917355371901,320.42582393203855 113.71900826446281,316.0263137656253 119.3388429752066,312.4450859870916 124.95867768595042,312.4450859870916 130.5785123966942,312.4450859870916 136.19834710743802,310.6296254666138 141.8181818181818,311.10833722794416 147.43801652892563,308.8191342723782 153.05785123966942,307.1593793074889 158.6776859504132,307.1593793074889 164.29752066115702,304.2871087395067 169.91735537190084,304.02042156450955 175.53719008264463,304.02042156450955 181.15702479338842,304.02042156450955 186.77685950413223,304.02042156450955 192.39669421487605,292.16360915065934 198.01652892561984,292.8212166567083 203.63636363636363,289.2515839727397 209.25619834710744,289.2515839727397 214.87603305785123,286.10765690351815 220.49586776859505,222.77028106272593 226.11570247933884,222.7868454835332 231.73553719008265,222.63610925418698 237.35537190082644,222.61126262297603 242.97520661157026,222.61126262297603 248.59504132231405,222.61126262297603 254.21487603305783,222.61126262297603 259.8347107438017,222.61126262297603 265.45454545454544,220.15310257517586 271.07438016528926,219.2718753882286 276.694214876033,219.2718753882286 282.31404958677683,219.2718753882286 287.93388429752065,219.2718753882286 293.55371900826447,219.2718753882286 299.1735537190083,219.2718753882286 304.7933884297521,219.2718753882286 310.41322314049586,219.2718753882286 316.0330578512397,219.2718753882286 321.65289256198344,217.126782893686 327.27272727272725,207.58733295077408 332.89256198347107,205.7635902198927 338.5123966942149,205.91929577548112 344.13223140495865,205.79837550358798 349.75206611570246,204.93536917952875 355.3719008264463,204.16512361199028 360.9917355371901,202.5616876778457 366.61157024793386,184.4832788087815 372.2314049586777,107.23675881611717 377.8512396694215,107.23675881611717 383.4710743801653,98.55700231310306 389.09090909090907,96.02761525583156 394.7107438016529,111.31491921886925 400.3305785123967,111.31491921886925 405.9504132231405,111.31491921886925 411.5702479338843,111.31491921886925 417.1900826446281,111.30994989262706 422.8099173553719,90.24331950992979 428.42975206611567,90.24331950992979 434.04958677685954,88.80552778385797 439.6694214876033,88.80552778385797 445.2892561983471,88.21086507687664 450.9090909090909,88.21086507687664 456.52892561983475,88.21086507687664 462.1487603305785,88.21086507687664 467.7685950413223,88.21086507687664 473.3884297520661,88.21086507687664 479.00826446280996,88.21086507687664 484.6280991735537,88.21086507687664 490.24793388429754,88.21086507687664 495.8677685950413,88.21086507687664 501.48760330578517,87.4836870034371 507.10743801652893,87.4836870034371 512.7272727272727,87.47540479303348 518.3471074380166,87.47540479303348 523.9669421487604,87.47540479303348 529.5867768595042,87.47540479303348 535.2066115702479,87.47540479303348 540.8264462809917,87.47540479303348 546.4462809917356,87.47540479303348 552.0661157024794,87.47540479303348 557.685950413223,87.47540479303348 563.3057851239669,87.47540479303348 568.9256198347108,86.48319598667749 574.5454545454545,86.48319598667749 580.1652892561983,86.48485242875819 585.7851239669421,86.48485242875819 591.404958677686,86.48485242875819 597.0247933884298,86.48485242875819 602.6446280991736,86.48485242875819 608.2644628099173,86.48485242875819 613.8842975206612,86.46828800795092 619.5041322314049,85.70963753497753 625.1239669421487,85.70963753497753 630.7438016528926,85.6897602300088 636.3636363636364,85.45454545454547 641.9834710743802,85.45454545454547 647.603305785124,85.45454545454547 653.2231404958677,85.45454545454547 658.8429752066116,85.45454545454547 664.4628099173553,85.45454545454547 670.0826446280992,85.45454545454547 675.702479338843,85.45454545454547 681.3223140495868,85.45454545454547 686.9421487603306,85.45454545454547 692.5619834710744,85.45454545454547 698.1818181818181,85.45454545454547 703.8016528925621,85.45454545454547 709.4214876033058,85.45454545454547 715.0413223140496,85.45454545454547 720.6611570247934,85.45454545454547 726.2809917355372,85.45454545454547 731.900826446281,85.45454545454547 737.5206611570248,85.45454545454547 743.1404958677685,85.45454545454547 748.7603305785125,85.45454545454547 754.3801652892562,85.45454545454547 760.0,85.45454545454547" fill="none" stroke="#e74c3c" stroke-width="2.5"/>
      
      <!-- X轴标签 -->
      <text x="80.0" y="375" fill="#666" font-size="11" text-anchor="middle" font-family="sans-serif">12-07</text><text x="214.87603305785123" y="375" fill="#666" font-size="11" text-anchor="middle" font-family="sans-serif">01-18</text><text x="349.75206611570246" y="375" fill="#666" font-size="11" text-anchor="middle" font-family="sans-serif">02-11</text><text x="484.6280991735537" y="375" fill="#666" font-size="11" text-anchor="middle" font-family="sans-serif">07-28</text><text x="619.5041322314049" y="375" fill="#666" font-size="11" text-anchor="middle" font-family="sans-serif">08-21</text><text x="760.0" y="375" fill="#666" font-size="11" text-anchor="middle" font-family="sans-serif">09-15</text>
      <text x="400" y="395" fill="#666" font-size="12" text-anchor="middle" font-family="sans-serif">Date</text>
      
      <!-- 当前值标注 -->
      <circle cx="760.0" cy="85.45454545454547" r="4" fill="#e74c3c"/>
      <text x="768.0" y="77.45454545454547" fill="#e74c3c" font-size="12" font-weight="bold" font-family="sans-serif">153670</text>
    </svg>