<svg width="800" height="400" xmlns="http://www.w3.org/2000/svg">
      <defs>
        <linearGradient id="areaGrad" x1="0%" y1="0%" x2="0%" y2="100%">
          <stop offset="0%" style="stop-color:#e74c3c;stop-opacity:0.3"/>
          <stop offset="100%" style="stop-color:#e74c3c;stop-opacity:0.05"/>
        </linearGradient>
      </defs>
      <rect width="100%" height="100%" fill="#ffffff"/>
      
      <!-- 标题 -->
      <text x="400" y="30" fill="#333" font-size="16" font-weight="bold" text-anchor="middle" font-family="sans-serif">Code History</text>
      
      <!-- 图例 -->
      <rect x="80" y="45" width="12" height="12" fill="#e74c3c" rx="2"/>
      <text x="98" y="55" fill="#333" font-size="11" font-family="sans-serif">WyRainBow/Resume-Agent</text>
      
      <!-- Y轴标签 -->
      <text x="20" y="200" fill="#666" font-size="12" text-anchor="middle" font-family="sans-serif" transform="rotate(-90, 20, 200)">Lines of Code</text>
      
      <!-- 网格线和Y轴刻度 -->
      <text x="70" y="344.0" fill="#666" font-size="12" text-anchor="end" font-family="sans-serif">0</text><line x1="80" y1="340.0" x2="760" y2="340.0" stroke="#eee" stroke-width="1"/><text x="70" y="288.0" fill="#666" font-size="12" text-anchor="end" font-family="sans-serif">33.7k</text><line x1="80" y1="284.0" x2="760" y2="284.0" stroke="#eee" stroke-width="1"/><text x="70" y="232.0" fill="#666" font-size="12" text-anchor="end" font-family="sans-serif">67.3k</text><line x1="80" y1="228.0" x2="760" y2="228.0" stroke="#eee" stroke-width="1"/><text x="70" y="176.0" fill="#666" font-size="12" text-anchor="end" font-family="sans-serif">101.0k</text><line x1="80" y1="172.0" x2="760" y2="172.0" stroke="#eee" stroke-width="1"/><text x="70" y="120.0" fill="#666" font-size="12" text-anchor="end" font-family="sans-serif">134.7k</text><line x1="80" y1="116.0" x2="760" y2="116.0" stroke="#eee" stroke-width="1"/><text x="70" y="64.0" fill="#666" font-size="12" text-anchor="end" font-family="sans-serif">168.4k</text><line x1="80" y1="60.0" x2="760" y2="60.0" stroke="#eee" stroke-width="1"/>
      
      <!-- 坐标轴 -->
      <line x1="80" y1="60" x2="80" y2="340" stroke="#ccc" stroke-width="1"/>
      <line x1="80" y1="340" x2="760" y2="340" stroke="#ccc" stroke-width="1"/>
      
      <!-- 填充区域 -->
      <polygon points="80,340 80.0,327.87055126136073 87.64044943820225,327.47305527225683 95.28089887640449,321.8781744883843 102.92134831460675,320.04370555122273 110.56179775280899,320.04370555122273 118.20224719101122,320.3464012416701 125.84269662921349,315.92903995690034 133.48314606741573,312.3332812604876 141.12359550561797,312.3332812604876 148.76404494382024,312.3332812604876 156.40449438202245,310.5104544652663 164.04494382022472,310.99110861108653 171.68539325842698,308.69261715944805 179.3258426966292,307.02612769885343 186.96629213483146,307.02612769885343 194.6067415730337,304.1422028239322 202.24719101123594,303.8744335593057 209.8876404494382,303.8744335593057 217.52808988764045,303.8744335593057 225.1685393258427,303.8744335593057 232.80898876404493,291.9695118438005 240.4494382022472,292.6297876081279 248.08988764044943,289.04567105365544 255.7303370786517,289.04567105365544 263.37078651685397,285.88898742470474 271.0112359550562,222.29461865748286 278.6516853932584,222.3112502888261 286.29213483146066,222.15990244360245 293.9325842696629,222.13495499658757 301.5730337078652,222.13495499658757 309.2134831460674,222.13495499658757 316.85393258426967,222.13495499658757 324.4943820224719,222.13495499658757 332.13483146067415,219.66682090524785 339.7752808988764,218.78201811778644 347.4157303370787,218.78201811778644 355.0561797752809,218.78201811778644 362.69662921348316,218.78201811778644 370.3370786516854,218.78201811778644 377.97752808988764,218.78201811778644 385.61797752808985,218.78201811778644 393.2584269662921,218.78201811778644 400.8988764044944,218.78201811778644 408.53932584269666,216.62822185883428 416.17977528089887,207.05006536825107 423.82022471910113,205.21892275735817 431.4606741573034,205.3752600919848 439.1011235955056,205.25384918317903 446.7415730337079,204.3873411901952 454.38202247191015,203.61397033273363 462.02247191011236,202.0040284187061 469.66292134831457,183.8522659706725 477.30337078651684,106.2923163645155 484.9438202247191,106.2923163645155 492.5842696629214,97.57734154064744 500.2247191011236,95.0376914345317 507.86516853932585,110.38702400122602 515.5056179775281,110.38702400122602 523.1460674157304,110.38702400122602 530.7865168539325,110.38702400122602 538.4269662921348,110.38203451182306 546.0674157303371,89.22992576946544 553.7078651685393,89.22992576946544 561.3483146067415,87.7863001688705 568.9887640449438,87.7863001688705 576.629213483146,87.18922460364746 584.2696629213483,87.18922460364746 591.9101123595506,87.18922460364746 599.5505617977528,87.18922460364746 607.1910112359551,87.18922460364746 614.8314606741574,87.18922460364746 622.4719101123595,87.18922460364746 630.1123595505618,87.18922460364746 637.7528089887641,87.18922460364746 645.3932584269663,87.18922460364746 653.0337078651685,86.45909598767835 660.6741573033707,86.45909598767835 668.314606741573,86.45078017200674 675.9550561797753,86.45078017200674 683.5955056179774,86.45078017200674 691.2359550561797,86.45078017200674 698.876404494382,86.45078017200674 706.5168539325842,86.45078017200674 714.1573033707865,86.45078017200674 721.7977528089888,86.45078017200674 729.438202247191,86.45078017200674 737.0786516853933,86.45078017200674 744.7191011235955,85.4545454545455 752.3595505617977,85.4545454545455 760.0,85.4562086176798 760.0,340" fill="url(#areaGrad)"/>
      
      <!-- 折线 -->
      <polyline points="80.0,327.87055126136073 87.64044943820225,327.47305527225683 95.28089887640449,321.8781744883843 102.92134831460675,320.04370555122273 110.56179775280899,320.04370555122273 118.20224719101122,320.3464012416701 125.84269662921349,315.92903995690034 133.48314606741573,312.3332812604876 141.12359550561797,312.3332812604876 148.76404494382024,312.3332812604876 156.40449438202245,310.5104544652663 164.04494382022472,310.99110861108653 171.68539325842698,308.69261715944805 179.3258426966292,307.02612769885343 186.96629213483146,307.02612769885343 194.6067415730337,304.1422028239322 202.24719101123594,303.8744335593057 209.8876404494382,303.8744335593057 217.52808988764045,303.8744335593057 225.1685393258427,303.8744335593057 232.80898876404493,291.9695118438005 240.4494382022472,292.6297876081279 248.08988764044943,289.04567105365544 255.7303370786517,289.04567105365544 263.37078651685397,285.88898742470474 271.0112359550562,222.29461865748286 278.6516853932584,222.3112502888261 286.29213483146066,222.15990244360245 293.9325842696629,222.13495499658757 301.5730337078652,222.13495499658757 309.2134831460674,222.13495499658757 316.85393258426967,222.13495499658757 324.4943820224719,222.13495499658757 332.13483146067415,219.66682090524785 339.7752808988764,218.78201811778644 347.4157303370787,218.78201811778644 355.0561797752809,218.78201811778644 362.69662921348316,218.78201811778644 370.3370786516854,218.78201811778644 377.97752808988764,218.78201811778644 385.61797752808985,218.78201811778644 393.2584269662921,218.78201811778644 400.8988764044944,218.78201811778644 408.53932584269666,216.62822185883428 416.17977528089887,207.05006536825107 423.82022471910113,205.21892275735817 431.4606741573034,205.3752600919848 439.1011235955056,205.25384918317903 446.7415730337079,204.3873411901952 454.38202247191015,203.61397033273363 462.02247191011236,202.0040284187061 469.66292134831457,183.8522659706725 477.30337078651684,106.2923163645155 484.9438202247191,106.2923163645155 492.5842696629214,97.57734154064744 500.2247191011236,95.0376914345317 507.86516853932585,110.38702400122602 515.5056179775281,110.38702400122602 523.1460674157304,110.38702400122602 530.7865168539325,110.38702400122602 538.4269662921348,110.38203451182306 546.0674157303371,89.22992576946544 553.7078651685393,89.22992576946544 561.3483146067415,87.7863001688705 568.9887640449438,87.7863001688705 576.629213483146,87.18922460364746 584.2696629213483,87.18922460364746 591.9101123595506,87.18922460364746 599.5505617977528,87.18922460364746 607.1910112359551,87.18922460364746 614.8314606741574,87.18922460364746 622.4719101123595,87.18922460364746 630.1123595505618,87.18922460364746 637.7528089887641,87.18922460364746 645.3932584269663,87.18922460364746 653.0337078651685,86.45909598767835 660.6741573033707,86.45909598767835 668.314606741573,86.45078017200674 675.9550561797753,86.45078017200674 683.5955056179774,86.45078017200674 691.2359550561797,86.45078017200674 698.876404494382,86.45078017200674 706.5168539325842,86.45078017200674 714.1573033707865,86.45078017200674 721.7977528089888,86.45078017200674 729.438202247191,86.45078017200674 737.0786516853933,86.45078017200674 744.7191011235955,85.4545454545455 752.3595505617977,85.4545454545455 760.0,85.4562086176798" fill="none" stroke="#e74c3c" stroke-width="2.5"/>
      
      <!-- X轴标签 -->
      <text x="80.0" y="375" fill="#666" font-size="11" text-anchor="middle" font-family="sans-serif">12-07</text><text x="209.8876404494382" y="375" fill="#666" font-size="11" text-anchor="middle" font-family="sans-serif">12-24</text><text x="347.4157303370787" y="375" fill="#666" font-size="11" text-anchor="middle" font-family="sans-serif">01-29</text><text x="484.9438202247191" y="375" fill="#666" font-size="11" text-anchor="middle" font-family="sans-serif">07-09</text><text x="622.4719101123595" y="375" fill="#666" font-size="11" text-anchor="middle" font-family="sans-serif">07-27</text><text x="760.0" y="375" fill="#666" font-size="11" text-anchor="middle" font-family="sans-serif">08-14</text>
      <text x="400" y="395" fill="#666" font-size="12" text-anchor="middle" font-family="sans-serif">Date</text>
      
      <!-- 当前值标注 -->
      <circle cx="760.0" cy="85.4562086176798" r="4" fill="#e74c3c"/>
      <text x="768.0" y="77.4562086176798" fill="#e74c3c" font-size="12" font-weight="bold" font-family="sans-serif">153048</text>
    </svg>