<svg width="800" height="400" xmlns="http://www.w3.org/2000/svg">
      <defs>
        <linearGradient id="areaGrad" x1="0%" y1="0%" x2="0%" y2="100%">
          <stop offset="0%" style="stop-color:#e74c3c;stop-opacity:0.3"/>
          <stop offset="100%" style="stop-color:#e74c3c;stop-opacity:0.05"/>
        </linearGradient>
      </defs>
      <rect width="100%" height="100%" fill="#ffffff"/>
      
      <!-- 标题 -->
      <text x="400" y="30" fill="#333" font-size="16" font-weight="bold" text-anchor="middle" font-family="sans-serif">Code History</text>
      
      <!-- 图例 -->
      <rect x="80" y="45" width="12" height="12" fill="#e74c3c" rx="2"/>
      <text x="98" y="55" fill="#333" font-size="11" font-family="sans-serif">WyRainBow/Resume-Agent</text>
      
      <!-- Y轴标签 -->
      <text x="20" y="200" fill="#666" font-size="12" text-anchor="middle" font-family="sans-serif" transform="rotate(-90, 20, 200)">Lines of Code</text>
      
      <!-- 网格线和Y轴刻度 -->
      <text x="70" y="344.0" fill="#666" font-size="12" text-anchor="end" font-family="sans-serif">0</text><line x1="80" y1="340.0" x2="760" y2="340.0" stroke="#eee" stroke-width="1"/><text x="70" y="288.0" fill="#666" font-size="12" text-anchor="end" font-family="sans-serif">33.8k</text><line x1="80" y1="284.0" x2="760" y2="284.0" stroke="#eee" stroke-width="1"/><text x="70" y="232.0" fill="#666" font-size="12" text-anchor="end" font-family="sans-serif">67.6k</text><line x1="80" y1="228.0" x2="760" y2="228.0" stroke="#eee" stroke-width="1"/><text x="70" y="176.0" fill="#666" font-size="12" text-anchor="end" font-family="sans-serif">101.4k</text><line x1="80" y1="172.0" x2="760" y2="172.0" stroke="#eee" stroke-width="1"/><text x="70" y="120.0" fill="#666" font-size="12" text-anchor="end" font-family="sans-serif">135.2k</text><line x1="80" y1="116.0" x2="760" y2="116.0" stroke="#eee" stroke-width="1"/><text x="70" y="64.0" fill="#666" font-size="12" text-anchor="end" font-family="sans-serif">169.0k</text><line x1="80" y1="60.0" x2="760" y2="60.0" stroke="#eee" stroke-width="1"/>
      
      <!-- 坐标轴 -->
      <line x1="80" y1="60" x2="80" y2="340" stroke="#ccc" stroke-width="1"/>
      <line x1="80" y1="340" x2="760" y2="340" stroke="#ccc" stroke-width="1"/>
      
      <!-- 填充区域 -->
      <polygon points="80,340 80.0,327.9195679052515 85.86206896551724,327.52367824795755 91.72413793103448,321.9514070883889 97.58620689655172,320.12435147334605 103.44827586206897,320.12435147334605 109.3103448275862,320.42582393203855 115.17241379310344,316.0263137656253 121.0344827586207,312.4450859870916 126.89655172413794,312.4450859870916 132.75862068965517,312.4450859870916 138.6206896551724,310.6296254666138 144.48275862068965,311.10833722794416 150.3448275862069,308.8191342723782 156.20689655172413,307.1593793074889 162.0689655172414,307.1593793074889 167.93103448275863,304.2871087395067 173.79310344827587,304.02042156450955 179.65517241379308,304.02042156450955 185.51724137931035,304.02042156450955 191.3793103448276,304.02042156450955 197.24137931034483,292.16360915065934 203.10344827586206,292.8212166567083 208.9655172413793,289.2515839727397 214.82758620689657,289.2515839727397 220.68965517241378,286.10765690351815 226.55172413793102,222.77028106272593 232.41379310344828,222.7868454835332 238.27586206896552,222.63610925418698 244.13793103448276,222.61126262297603 250.0,222.61126262297603 255.86206896551727,222.61126262297603 261.7241379310345,222.61126262297603 267.58620689655174,222.61126262297603 273.44827586206895,220.15310257517586 279.31034482758616,219.2718753882286 285.17241379310343,219.2718753882286 291.0344827586207,219.2718753882286 296.8965517241379,219.2718753882286 302.7586206896552,219.2718753882286 308.62068965517244,219.2718753882286 314.48275862068965,219.2718753882286 320.34482758620686,219.2718753882286 326.2068965517241,219.2718753882286 332.0689655172414,217.126782893686 337.9310344827586,207.58733295077408 343.7931034482759,205.7635902198927 349.65517241379314,205.91929577548112 355.51724137931035,205.79837550358798 361.37931034482756,204.93536917952875 367.2413793103448,204.16512361199028 373.10344827586204,202.5616876778457 378.9655172413793,184.4832788087815 384.82758620689657,107.23675881611717 390.68965517241384,107.23675881611717 396.55172413793105,98.55700231310306 402.41379310344826,96.02761525583156 408.2758620689655,111.31491921886925 414.13793103448273,111.31491921886925 420.0,111.31491921886925 425.8620689655172,111.31491921886925 431.72413793103453,111.30994989262706 437.58620689655174,90.24331950992979 443.44827586206895,90.24331950992979 449.3103448275862,88.80552778385797 455.17241379310343,88.80552778385797 461.03448275862064,88.21086507687664 466.89655172413796,88.21086507687664 472.7586206896552,88.21086507687664 478.6206896551724,88.21086507687664 484.48275862068965,88.21086507687664 490.34482758620686,88.21086507687664 496.2068965517241,88.21086507687664 502.0689655172414,88.21086507687664 507.9310344827586,88.21086507687664 513.7931034482758,88.21086507687664 519.6551724137931,87.4836870034371 525.5172413793103,87.4836870034371 531.3793103448277,87.47540479303348 537.2413793103449,87.47540479303348 543.1034482758621,87.47540479303348 548.9655172413793,87.47540479303348 554.8275862068965,87.47540479303348 560.6896551724137,87.47540479303348 566.551724137931,87.47540479303348 572.4137931034483,87.47540479303348 578.2758620689655,87.47540479303348 584.1379310344828,87.47540479303348 590.0,86.48319598667749 595.8620689655172,86.48319598667749 601.7241379310345,86.48485242875819 607.5862068965517,86.48485242875819 613.448275862069,86.48485242875819 619.3103448275863,86.48485242875819 625.1724137931035,86.48485242875819 631.0344827586207,86.48485242875819 636.8965517241379,86.46828800795092 642.7586206896551,85.70963753497753 648.6206896551723,85.70963753497753 654.4827586206897,85.6897602300088 660.3448275862069,85.45454545454547 666.2068965517241,85.45454545454547 672.0689655172414,85.45454545454547 677.9310344827586,85.45454545454547 683.7931034482759,85.45454545454547 689.6551724137931,85.45454545454547 695.5172413793103,85.45454545454547 701.3793103448277,85.45454545454547 707.2413793103449,85.45454545454547 713.1034482758621,85.45454545454547 718.9655172413793,85.45454545454547 724.8275862068965,85.45454545454547 730.6896551724137,85.45454545454547 736.551724137931,85.45454545454547 742.4137931034483,85.45454545454547 748.2758620689655,85.45454545454547 754.1379310344828,85.45454545454547 760.0,85.45454545454547 760.0,340" fill="url(#areaGrad)"/>
      
      <!-- 折线 -->
      <polyline points="80.0,327.9195679052515 85.86206896551724,327.52367824795755 91.72413793103448,321.9514070883889 97.58620689655172,320.12435147334605 103.44827586206897,320.12435147334605 109.3103448275862,320.42582393203855 115.17241379310344,316.0263137656253 121.0344827586207,312.4450859870916 126.89655172413794,312.4450859870916 132.75862068965517,312.4450859870916 138.6206896551724,310.6296254666138 144.48275862068965,311.10833722794416 150.3448275862069,308.8191342723782 156.20689655172413,307.1593793074889 162.0689655172414,307.1593793074889 167.93103448275863,304.2871087395067 173.79310344827587,304.02042156450955 179.65517241379308,304.02042156450955 185.51724137931035,304.02042156450955 191.3793103448276,304.02042156450955 197.24137931034483,292.16360915065934 203.10344827586206,292.8212166567083 208.9655172413793,289.2515839727397 214.82758620689657,289.2515839727397 220.68965517241378,286.10765690351815 226.55172413793102,222.77028106272593 232.41379310344828,222.7868454835332 238.27586206896552,222.63610925418698 244.13793103448276,222.61126262297603 250.0,222.61126262297603 255.86206896551727,222.61126262297603 261.7241379310345,222.61126262297603 267.58620689655174,222.61126262297603 273.44827586206895,220.15310257517586 279.31034482758616,219.2718753882286 285.17241379310343,219.2718753882286 291.0344827586207,219.2718753882286 296.8965517241379,219.2718753882286 302.7586206896552,219.2718753882286 308.62068965517244,219.2718753882286 314.48275862068965,219.2718753882286 320.34482758620686,219.2718753882286 326.2068965517241,219.2718753882286 332.0689655172414,217.126782893686 337.9310344827586,207.58733295077408 343.7931034482759,205.7635902198927 349.65517241379314,205.91929577548112 355.51724137931035,205.79837550358798 361.37931034482756,204.93536917952875 367.2413793103448,204.16512361199028 373.10344827586204,202.5616876778457 378.9655172413793,184.4832788087815 384.82758620689657,107.23675881611717 390.68965517241384,107.23675881611717 396.55172413793105,98.55700231310306 402.41379310344826,96.02761525583156 408.2758620689655,111.31491921886925 414.13793103448273,111.31491921886925 420.0,111.31491921886925 425.8620689655172,111.31491921886925 431.72413793103453,111.30994989262706 437.58620689655174,90.24331950992979 443.44827586206895,90.24331950992979 449.3103448275862,88.80552778385797 455.17241379310343,88.80552778385797 461.03448275862064,88.21086507687664 466.89655172413796,88.21086507687664 472.7586206896552,88.21086507687664 478.6206896551724,88.21086507687664 484.48275862068965,88.21086507687664 490.34482758620686,88.21086507687664 496.2068965517241,88.21086507687664 502.0689655172414,88.21086507687664 507.9310344827586,88.21086507687664 513.7931034482758,88.21086507687664 519.6551724137931,87.4836870034371 525.5172413793103,87.4836870034371 531.3793103448277,87.47540479303348 537.2413793103449,87.47540479303348 543.1034482758621,87.47540479303348 548.9655172413793,87.47540479303348 554.8275862068965,87.47540479303348 560.6896551724137,87.47540479303348 566.551724137931,87.47540479303348 572.4137931034483,87.47540479303348 578.2758620689655,87.47540479303348 584.1379310344828,87.47540479303348 590.0,86.48319598667749 595.8620689655172,86.48319598667749 601.7241379310345,86.48485242875819 607.5862068965517,86.48485242875819 613.448275862069,86.48485242875819 619.3103448275863,86.48485242875819 625.1724137931035,86.48485242875819 631.0344827586207,86.48485242875819 636.8965517241379,86.46828800795092 642.7586206896551,85.70963753497753 648.6206896551723,85.70963753497753 654.4827586206897,85.6897602300088 660.3448275862069,85.45454545454547 666.2068965517241,85.45454545454547 672.0689655172414,85.45454545454547 677.9310344827586,85.45454545454547 683.7931034482759,85.45454545454547 689.6551724137931,85.45454545454547 695.5172413793103,85.45454545454547 701.3793103448277,85.45454545454547 707.2413793103449,85.45454545454547 713.1034482758621,85.45454545454547 718.9655172413793,85.45454545454547 724.8275862068965,85.45454545454547 730.6896551724137,85.45454545454547 736.551724137931,85.45454545454547 742.4137931034483,85.45454545454547 748.2758620689655,85.45454545454547 754.1379310344828,85.45454545454547 760.0,85.45454545454547" fill="none" stroke="#e74c3c" stroke-width="2.5"/>
      
      <!-- X轴标签 -->
      <text x="80.0" y="375" fill="#666" font-size="11" text-anchor="middle" font-family="sans-serif">12-07</text><text x="214.82758620689657" y="375" fill="#666" font-size="11" text-anchor="middle" font-family="sans-serif">01-17</text><text x="349.65517241379314" y="375" fill="#666" font-size="11" text-anchor="middle" font-family="sans-serif">02-09</text><text x="484.48275862068965" y="375" fill="#666" font-size="11" text-anchor="middle" font-family="sans-serif">07-25</text><text x="619.3103448275863" y="375" fill="#666" font-size="11" text-anchor="middle" font-family="sans-serif">08-17</text><text x="760.0" y="375" fill="#666" font-size="11" text-anchor="middle" font-family="sans-serif">09-10</text>
      <text x="400" y="395" fill="#666" font-size="12" text-anchor="middle" font-family="sans-serif">Date</text>
      
      <!-- 当前值标注 -->
      <circle cx="760.0" cy="85.45454545454547" r="4" fill="#e74c3c"/>
      <text x="768.0" y="77.45454545454547" fill="#e74c3c" font-size="12" font-weight="bold" font-family="sans-serif">153670</text>
    </svg>